<svg xmlns="http://www.w3.org/2000/svg" version="1.1" width="500" height="500">
  <path d="M 167 155.993 C 180.86 156.492 182.079 154.591 196.219 156.736 C 196.314 156.359 221.827 166.129 228.75 174.433 C 229.323 175.12 230.182 175.508 230.919 176.061 C 234.717 178.993 234.717 178.993 236 180.244 C 236 180.91 237.32 182.264 238 182.264 C 253.349 200.912 258.177 221.104 257 244.913 C 255.555 257.921 248.344 271.409 240 281.289 C 239.566 281.871 239.131 282.453 238.684 283.053 C 234.339 288.669 228.813 292.492 223 296.446 C 222.206 297.001 221.412 297.555 220.594 298.127 C 213.582 302.733 206 305.273 198 307.561 C 197.365 307.751 196.731 307.94 196.077 308.135 C 189.335 309.925 182.54 309.898 175.614 309.992 C 153.863 310.322 137.041 311.401 121 327.77 C 120.67 328.437 117.546 330.917 117.313 331.496 C 115.615 334.518 113.515 336.516 111 338.885 C 109.732 340.104 109.732 340.104 108.438 341.348 C 103.546 345.412 96.404 350 90 350 C 91.247 345.382 92.678 343.203 96 339.895 C 107.461 324.377 113.848 303.513 111.762 284.127 C 110.582 277.2 108.297 270.545 106.121 263.885 C 105.863 263.089 104.873 260.058 104.633 259.328 C 98.98 238.861 102.814 216.05 112 197.421 C 115.231 191.719 118.714 186.212 123 181.254 C 123.66 181.254 125.495 179.753 126 178.223 C 127.559 176.821 130.672 174.624 131.309 174.169 C 133 173.17 135 171.837 135 171.149 C 137.466 169.166 140.264 167.669 143 166.096 C 143.748 165.664 144.495 165.232 145.266 164.787 C 152.196 161.03 167 156.335 167 155.993 Z M 131 234.808 C 129.215 238.866 128.662 240.856 130.063 245.102 C 132.16 248.178 133.833 250.05 137 251.986 C 141.025 252.678 142.662 252.176 146.25 250.155 C 149.145 248.059 149.145 248.059 151 244.913 C 151.341 241.864 151.572 239.765 151 236.829 C 148.824 234.11 147.089 232.327 144 230.766 C 138.268 230.291 135.003 230.168 131 234.808 Z M 158 235.819 C 156.567 238.715 156.694 240.682 157 243.902 C 159.126 247.892 160.773 250.392 165 251.986 C 167.373 252.015 167.373 252.015 169.75 251.607 C 170.949 251.439 173.378 251.074 174 250.975 C 174.33 249.975 176.32 247.944 177 247.944 C 179.045 243.811 179.057 241.297 178 236.829 C 177.267 233.709 177.267 233.709 174.938 232.092 C 167.595 228.777 163.283 230.35 158 235.819 Z M 186 234.808 C 184.397 238.048 184.513 241.398 185 244.913 C 187.096 248.392 189.127 250.719 193 251.986 C 197.257 252.64 198.654 252.228 202.25 249.712 C 205.367 246.706 205.367 246.706 207 242.891 C 206.912 238.691 206.294 237.162 203.5 233.987 C 202.675 233.257 201.85 232.529 201 231.776 C 200.67 231.443 200.34 231.11 200 230.766 C 193.91 230.245 190.879 230.719 186 234.808 Z M 214 234.808 C 212.386 238.071 212.404 241.386 213 244.913 C 214.736 247.969 216.836 250.387 220 251.986 C 225.277 252.591 227.887 251.25 232 247.944 C 234.468 244.204 234.307 242.263 234 237.839 C 233.123 234.94 232.199 233.963 229.875 232.029 C 223.676 229.306 218.823 229.787 214 234.808 Z" fill="#080808" style="" transform="matrix(1, 0, 0, 1, 5.684341886080802e-14, 7.105427357601002e-15)"/>
  <path d="M 0 0 C 0.91 0.213 1.82 0.425 2.758 0.645 C 4.512 1.069 6.258 1.528 8 2 C 8 2.66 44.001 23.703 53.984 36.555 C 55.401 38.665 56.71 40.81 58 43 C 58.619 43.874 58.619 43.874 59.25 44.766 C 67.8 57.056 72.161 74.228 73 89 C 73.053 89.842 73.106 90.684 73.16 91.551 C 73.613 105.788 70.976 120.08 65 133 C 64.546 133.991 64.093 134.983 63.625 136.004 C 61.07 141.329 58.206 146.291 55 151.25 C 45.179 166.878 41.268 184.929 45.027 203.146 C 47.201 212.243 51.333 219.959 56 228 C 56.68 229.326 57.355 230.656 58 232 C 58.66 232 60 233.98 60 235 C 51.635 234.56 44.981 229.394 39.5 223.438 C 33.833 216.788 28.271 209.854 23.387 202.605 C 13.903 188.634 -5.94 185.829 -21.375 182.12 C -25.338 181.164 -29.294 180.177 -33.25 179.191 C -34.019 179 -34.788 178.808 -35.58 178.611 C -54.75 173.823 -72.883 168.395 -88 155 C -86.616 151.704 -85.199 150.171 -82.25 148.188 C -78.156 145.266 -75.085 141.95 -72 138 C -68.132 138.659 -65.389 140.541 -62.062 142.563 C -48.103 150.41 -31.571 153.228 -16.098 156.883 C -14.814 157.187 -13.53 157.491 -12.208 157.804 C -9.773 158.375 -7.335 158.934 -4.894 159.479 C 5.047 161.769 14.756 164.817 23 171 C 23.037 170.238 23.075 169.476 23.113 168.691 C 23.179 167.659 23.245 166.626 23.313 165.563 C 23.371 164.553 23.429 163.544 23.488 162.504 C 24.71 154.136 28.353 146.894 32.188 139.438 C 32.651 138.524 33.114 137.611 33.592 136.67 C 34.722 134.444 40.971 124.172 41.246 123.359 C 47.727 121.619 58.626 67.832 21.875 40.75 C 7.438 30.111 -8.723 22.872 -26.27 21.938 C -38.725 22.146 -54.104 25.037 -64.734 31.719 C -65.482 32.142 -66.23 32.564 -67 33 C -70.343 31.886 -71.06 31.025 -73.25 28.375 C -76.217 24.837 -79.362 21.705 -82.812 18.641 C -84 17 -84 17 -84.07 15.043 C -82.453 11.957 -79.836 10.678 -76.875 9.063 C -76.249 8.716 -75.623 8.369 -74.978 8.011 C -51.99 -4.289 -25.035 -6.038 0 0 Z" fill="#0F0F0F" transform="matrix(1, 0, 0, 1, 323.0000000000001, 151)"/>

  <path d="M0 0 C12.95367679 12.2353583 22.50200267 28.84946781 23.29296875 46.89453125 C23.3918346 67.04339125 17.52707433 83.84473984 3.25 98.5 C-5.24256071 106.8881873 -12.99904979 108.96259578 -24.75 109.3125 C-43.88216556 109.09434532 -71.39617283 103.8871742 -85.75390625 90.34765625 C-86.45386719 89.59355469 -87.15382812 88.83945312 -87.875 88.0625 C-87.57207031 87.52882813 -87.26914063 86.99515625 -86.95703125 86.4453125 C-74.75765011 64.74918236 -68.84318464 43.28866243 -75.43261719 18.49853516 C-77.48435546 11.37789001 -80.13809057 4.93803888 -83.8359375 -1.51953125 C-84.875 -3.9375 -84.875 -3.9375 -84.81640625 -6.1015625 C-82.26044423 -11.08621872 -74.11054765 -12.98645339 -69.0625 -14.625 C-43.62936549 -21.53617786 -20.17898429 -17.03465626 0 0 Z M-67.875 39.0625 C-70.74934293 42.20631258 -70.875 43.76491439 -70.875 48.0625 C-70.11305893 52.35044494 -68.45759488 54.49237759 -64.875 57.0625 C-60.83302419 58.23834751 -58.6288188 58.30894076 -54.625 57 C-51.24952388 54.62182365 -50.1562399 52.98158675 -48.875 49.0625 C-48.79156437 44.30666907 -49.31099893 42.65213748 -52.625 39.1875 C-58.57296013 35.29844914 -61.59560327 35.57394626 -67.875 39.0625 Z M-41.875 42.0625 C-43.30804064 44.92858129 -43.18144155 46.87550783 -42.875 50.0625 C-41.25243711 53.07583109 -39.77425309 55.32382782 -37.125 57.5 C-33.56425964 58.39018509 -30.34193745 58.11496315 -26.875 57.0625 C-23.31399207 54.48645171 -22.11025419 52.82361649 -20.8125 48.625 C-20.89006618 44.20372765 -22.06670904 42.41684754 -24.875 39.0625 C-31.2322156 34.82435627 -37.26828749 36.01618983 -41.875 42.0625 Z M-14.875 42.0625 C-16.2534168 45.87341703 -16.10660037 47.47191906 -14.625 51.25 C-11.56948388 56.17290975 -11.56948388 56.17290975 -6.0625 58 C-2.64425845 58.31475521 -1.76260637 58.00630319 1.5 56.375 C4.99607787 53.29512188 5.94805962 51.7257396 6.4375 47.125 C6.08075962 43.62894429 5.22109412 41.85729215 3.125 39.0625 C-3.47673557 34.66134295 -9.87823047 36.31621504 -14.875 42.0625 Z " fill="#0770B3" transform="matrix(1, 0, 0, 1, 342.8750000000001, 194.9375)"/>
</svg>